<svg id="Capa_1" enable-background="new 0 0 512 512" height="512" viewBox="0 0 512 512" width="512" xmlns="http://www.w3.org/2000/svg"><g><path d="m379.856 0h-310.634c-6.766 0-12.252 5.486-12.252 12.252v487.495c0 6.767 5.486 12.252 12.252 12.252h373.555c6.767 0 12.252-5.486 12.252-12.252v-424.573z" fill="#f4fbff"/><path d="m379.856 0h-20.085l75.174 75.174v424.573c0 6.767-5.486 12.252-12.252 12.252h20.085c6.767 0 12.252-5.486 12.252-12.252v-424.573z" fill="#e4f6ff"/><path d="m379.856 0 75.174 75.174h-69.935c-2.894 0-5.239-2.346-5.239-5.239z" fill="#ddeafb"/><path d="m434.945 75.174h20.085l-75.174-75.174v20.085z" fill="#cbe2ff"/><g><g><g><path d="m154.468 300.083h-46.206c-4.268 0-7.726-3.459-7.726-7.726 0-4.268 3.459-7.726 7.726-7.726h46.206c4.268 0 7.726 3.459 7.726 7.726.001 4.267-3.458 7.726-7.726 7.726z" fill="#30579d"/></g><g><path d="m403.738 300.083h-210.379c-4.268 0-7.726-3.459-7.726-7.726 0-4.268 3.459-7.726 7.726-7.726h210.379c4.268 0 7.726 3.459 7.726 7.726s-3.458 7.726-7.726 7.726z" fill="#30579d"/></g></g></g><g><g><g><path d="m154.468 337.131h-46.206c-4.268 0-7.726-3.459-7.726-7.726s3.459-7.726 7.726-7.726h46.206c4.268 0 7.726 3.459 7.726 7.726s-3.458 7.726-7.726 7.726z" fill="#30579d"/></g><g><path d="m403.738 337.131h-210.379c-4.268 0-7.726-3.459-7.726-7.726s3.459-7.726 7.726-7.726h210.379c4.268 0 7.726 3.459 7.726 7.726s-3.458 7.726-7.726 7.726z" fill="#30579d"/></g></g></g><g><g><g><path d="m154.468 407.981h-46.206c-4.268 0-7.726-3.459-7.726-7.726s3.459-7.726 7.726-7.726h46.206c4.268 0 7.726 3.459 7.726 7.726s-3.458 7.726-7.726 7.726z" fill="#30579d"/></g><g><path d="m403.738 407.981h-210.379c-4.268 0-7.726-3.459-7.726-7.726s3.459-7.726 7.726-7.726h210.379c4.268 0 7.726 3.459 7.726 7.726s-3.458 7.726-7.726 7.726z" fill="#30579d"/></g></g></g><g><g><g><path d="m154.468 445.029h-46.206c-4.268 0-7.726-3.459-7.726-7.726s3.459-7.726 7.726-7.726h46.206c4.268 0 7.726 3.459 7.726 7.726s-3.458 7.726-7.726 7.726z" fill="#30579d"/></g><g><path d="m403.738 445.029h-210.379c-4.268 0-7.726-3.459-7.726-7.726s3.459-7.726 7.726-7.726h210.379c4.268 0 7.726 3.459 7.726 7.726s-3.458 7.726-7.726 7.726z" fill="#30579d"/></g></g></g><path d="m205.741 193.165h-100.673c-5.403 0-9.784-4.38-9.784-9.784v-78.173c0-29.885 24.227-54.112 54.112-54.112h12.016c29.885 0 54.112 24.227 54.112 54.112v78.173c0 5.403-4.38 9.784-9.783 9.784z" fill="#3b66c1"/><path d="m161.412 51.096h-12.016c-.533 0-1.06.025-1.589.04 29.148.843 52.523 24.719 52.523 54.072v78.173c0 5.403-4.38 9.784-9.784 9.784h15.195c5.403 0 9.784-4.38 9.784-9.784v-78.173c-.001-29.885-24.227-54.112-54.113-54.112z" fill="#30579d"/><path d="m172.556 171.586h-7.045-20.213-7.045c-14.02 0-25.386 11.366-25.386 25.386v31.141c0 1.786 1.447 3.233 3.233 3.233h78.609c1.786 0 3.233-1.447 3.233-3.233v-31.141c0-14.02-11.366-25.386-25.386-25.386z" fill="#90d8f9"/><path d="m172.556 171.586h-15.76c14.02 0 25.386 11.365 25.386 25.386v31.141c0 1.786-1.448 3.233-3.233 3.233h15.76c1.786 0 3.233-1.447 3.233-3.233v-31.141c0-14.02-11.366-25.386-25.386-25.386z" fill="#75cef9"/><path d="m155.404 177.582c-24.013 0-43.48-19.466-43.48-43.48v-26.298c0-.632.513-1.141 1.145-1.142 20.123-.037 37.909-2.919 53.773-13.171.474-.306 1.108-.208 1.447.242 7.164 9.511 16.935 12.143 29.455 12.867.638.037 1.14.561 1.14 1.201v26.3c0 24.015-19.467 43.481-43.48 43.481z" fill="#ffddce"/><path d="m197.744 106.601c-5.149-.298-9.826-.93-14.055-2.219v29.72c0 21.42-15.494 39.209-35.882 42.804 2.468.435 5.004.675 7.597.675 24.013 0 43.48-19.466 43.48-43.48v-26.301c0-.637-.501-1.162-1.14-1.199z" fill="#ffcbbe"/><g><g><path d="m340.413 99.375h-75.624c-4.268 0-7.726-3.459-7.726-7.726 0-4.268 3.459-7.726 7.726-7.726h75.624c4.268 0 7.726 3.459 7.726 7.726s-3.458 7.726-7.726 7.726z" fill="#30579d"/></g><g><path d="m390.274 140.158h-125.485c-4.268 0-7.726-3.459-7.726-7.726s3.459-7.726 7.726-7.726h125.485c4.268 0 7.726 3.459 7.726 7.726s-3.458 7.726-7.726 7.726z" fill="#30579d"/></g><g><path d="m390.274 180.942h-125.485c-4.268 0-7.726-3.459-7.726-7.726 0-4.268 3.459-7.726 7.726-7.726h125.485c4.268 0 7.726 3.459 7.726 7.726.001 4.267-3.458 7.726-7.726 7.726z" fill="#30579d"/></g><g><path d="m390.274 221.726h-125.485c-4.268 0-7.726-3.459-7.726-7.726s3.459-7.726 7.726-7.726h125.485c4.268 0 7.726 3.459 7.726 7.726s-3.458 7.726-7.726 7.726z" fill="#30579d"/></g></g></g></svg>